<?xml version="1.0" encoding="UTF-8" standalone="no"?>
<!-- Created with Inkscape (http://www.inkscape.org/) -->

<svg
   width="104.28724mm"
   height="104.28723mm"
   viewBox="0 0 104.28724 104.28723"
   version="1.1"
   id="svg1"
   xml:space="preserve"
   xmlns:inkscape="http://www.inkscape.org/namespaces/inkscape"
   xmlns:sodipodi="http://sodipodi.sourceforge.net/DTD/sodipodi-0.dtd"
   xmlns="http://www.w3.org/2000/svg"
   xmlns:svg="http://www.w3.org/2000/svg"><sodipodi:namedview
     id="namedview1"
     pagecolor="#ffffff"
     bordercolor="#000000"
     borderopacity="0.25"
     inkscape:showpageshadow="2"
     inkscape:pageopacity="0.0"
     inkscape:pagecheckerboard="0"
     inkscape:deskcolor="#d1d1d1"
     inkscape:document-units="mm" /><defs
     id="defs1" /><g
     inkscape:label="Capa 1"
     inkscape:groupmode="layer"
     id="layer1"
     transform="translate(-53.45799,-73.272878)"><circle
       style="fill:#0161a3;fill-opacity:1;stroke-width:0.264583"
       id="path1"
       cx="105.60161"
       cy="125.4165"
       r="52.14362"
       inkscape:export-filename="icon.svg"
       inkscape:export-xdpi="96"
       inkscape:export-ydpi="96" /><path
       d="m 96.2162,152.94109 q -2.47489,0 -4.2374,-1.7624 -1.7624,-1.76251 -1.7624,-4.23739 v -29.99874 q 0,-2.47489 1.7624,-4.23729 1.76251,-1.76251 4.2374,-1.76251 h 29.99874 q 2.47488,0 4.23739,1.76251 1.7624,1.7624 1.7624,4.23729 v 29.99874 q 0,2.47488 -1.7624,4.23739 -1.76251,1.7624 -4.23739,1.7624 z m 0,-29.99874 h 29.99874 v -5.99979 H 96.2162 Z m 11.99947,11.99947 h 5.99979 v -5.99979 h -5.99979 z m 0,11.99948 h 5.99979 v -5.99968 h -5.99979 z M 96.2162,134.94182 h 5.99979 v -5.99979 H 96.2162 Z m 23.99906,0 h 5.99968 v -5.99979 h -5.99968 z M 96.2162,146.9413 h 5.99979 v -5.99968 H 96.2162 Z m 23.99906,0 h 5.99968 v -5.99968 h -5.99968 z m -35.99854,-5.99968 q -2.47499,0 -4.23739,-1.76251 -1.7624,-1.7624 -1.7624,-4.23729 v -29.99874 q 0,-2.47488 1.7624,-4.23739 1.7624,-1.762394 4.23739,-1.762394 h 29.99874 q 2.47489,0 4.23729,1.762394 1.76251,1.76251 1.76251,4.23739 v 2.99984 h -5.9998 v -2.99984 H 84.21672 v 29.99874 h 2.99984 v 5.9998 z"
       id="path1-5"
       style="fill:#ffffff;fill-opacity:1;stroke-width:0.0749969" /></g></svg>
