<?xml version="1.0" encoding="UTF-8" standalone="no"?>
<!-- Created with Inkscape (http://www.inkscape.org/) -->

<svg
   width="79.019875mm"
   height="112.18984mm"
   viewBox="0 0 79.019875 112.18984"
   version="1.1"
   id="svg1"
   xmlns="http://www.w3.org/2000/svg"
   xmlns:svg="http://www.w3.org/2000/svg">
  <defs
     id="defs1" />
  <g
     id="layer6"
     transform="translate(-65.88717,-78.397924)">
    <path
       id="path1"
       style="display:inline;fill:#11384f;fill-opacity:0.443313;stroke:#676765;stroke-width:0;stroke-linejoin:round;stroke-dasharray:none;stroke-opacity:1"
       d="M 119.95755,80.608059 H 69.887733 c -2.216104,0 -4.000566,1.852634 -4.000566,4.15429 V 186.43347 c 0,2.30165 1.784462,4.1543 4.000566,4.1543 h 71.019337 c 2.2161,0 3.99988,-1.85265 3.99988,-4.1543 v -79.91286 z" />
  </g>
  <g
     id="layer2"
     style="display:inline"
     transform="translate(-65.88717,-78.397924)">
    <path
       id="rect1"
       style="fill:#00629f;fill-opacity:1;stroke:#676765;stroke-width:0;stroke-linejoin:round;stroke-dasharray:none;stroke-opacity:1"
       d="M 119.95755,78.398027 H 69.887733 c -2.216104,0 -4.000566,1.852634 -4.000566,4.15429 V 184.22343 c 0,2.30165 1.784462,4.1543 4.000566,4.1543 h 71.019337 c 2.2161,0 3.99988,-1.85265 3.99988,-4.1543 v -79.91287 z" />
  </g>
  <g
     id="layer3"
     style="display:inline;fill:#cb9a55;fill-opacity:0;stroke:#ffffff;stroke-width:2.4958;stroke-dasharray:none;stroke-opacity:1"
     transform="translate(-65.565065,-80.436124)">
    <path
       style="display:inline;fill:#735738;fill-opacity:1;stroke:#11384f;stroke-width:2.03439;stroke-linejoin:round;stroke-dasharray:none;stroke-opacity:1"
       d="m 83.228791,127.23067 c 44.824729,0 44.824729,0 44.824729,0"
       id="path53" />
    <path
       style="display:inline;fill:#001d2f;fill-opacity:1;stroke:#11384f;stroke-width:2.0335;stroke-linejoin:round;stroke-dasharray:none;stroke-opacity:1"
       d="m 83.228201,142.37111 c 44.785519,0 44.785519,0 44.785519,0"
       id="path54" />
    <path
       style="display:inline;fill:#735738;fill-opacity:1;stroke:#11384f;stroke-width:2.0335;stroke-linejoin:round;stroke-dasharray:none;stroke-opacity:1"
       d="m 83.228201,155.85868 c 44.785519,0 44.785519,0 44.785519,0"
       id="path55" />
    <rect
       style="display:inline;fill:#11384f;fill-opacity:1;stroke:#11384f;stroke-width:3.96933;stroke-linecap:round;stroke-linejoin:round;stroke-dasharray:none;stroke-opacity:1"
       id="rect56"
       width="49.181808"
       height="1.2656727"
       x="81.059998"
       y="167.26569"
       ry="0.41712701" />
  </g>
  <g
     id="layer1"
     style="display:inline"
     transform="translate(-65.88717,-78.397924)">
    <g
       id="g3"
       transform="matrix(1.6851462,0,0,1.6617097,-63.389822,-73.317187)"
       style="display:inline;fill:#cb9a55;fill-opacity:0;stroke:#b2cfe2;stroke-width:2.4958;stroke-dasharray:none;stroke-opacity:1">
      <rect
         style="display:inline;fill:#cb9a55;fill-opacity:0;stroke:#b2cfe2;stroke-width:2.4958;stroke-linejoin:round;stroke-dasharray:none;stroke-opacity:1"
         id="rect41"
         width="29.09869"
         height="25.807409"
         x="85.942993"
         y="117.59448" />
      <path
         style="display:inline;fill:#cb9a55;fill-opacity:0;stroke:#b2cfe2;stroke-width:2.4958;stroke-linejoin:round;stroke-dasharray:none;stroke-opacity:1"
         d="m 86.180407,126.81507 c 28.798143,-0.0704 28.798143,-0.0704 28.798143,-0.0704 v 0"
         id="path41" />
      <path
         style="display:inline;fill:#cb9a55;fill-opacity:0;stroke:#b2cfe2;stroke-width:2.4958;stroke-linejoin:round;stroke-dasharray:none;stroke-opacity:1"
         d="m 95.69904,143.24032 v -16.15994 h 0.145551"
         id="path42" />
      <path
         style="display:inline;fill:#cb9a55;fill-opacity:0;stroke:#b2cfe2;stroke-width:2.4958;stroke-linejoin:round;stroke-dasharray:none;stroke-opacity:1"
         d="m 105.7224,143.58398 v -14.04923 -2.2212 l 0.0101,0.041"
         id="path43" />
      <path
         style="display:inline;fill:#cb9a55;fill-opacity:0;stroke:#b2cfe2;stroke-width:2.4958;stroke-linejoin:round;stroke-dasharray:none;stroke-opacity:1"
         d="M 85.686957,134.84277 H 115.19859"
         id="path44" />
    </g>
  </g>
  <g
     id="layer5"
     style="display:inline"
     transform="translate(-65.88717,-78.397924)">
    <g
       id="layer4"
       style="display:inline">
      <path
         id="path56"
         style="display:inline;fill:#11384f;fill-opacity:1;stroke:#11384f;stroke-width:0;stroke-linejoin:round;stroke-dasharray:none;stroke-opacity:1"
         d="m 143.91001,105.58053 -23.9542,-25.173815 v 21.137925 c 0,2.23606 1.71261,4.03589 3.84032,4.03589 z" />
    </g>
    <path
       id="path2"
       style="display:inline;fill:#4c91bb;fill-opacity:1;stroke:#676765;stroke-width:0;stroke-linejoin:round;stroke-dasharray:none;stroke-opacity:1"
       d="m 144.90705,104.31044 -24.9494,-25.912513 v 21.758223 c 0,2.30164 1.78378,4.15429 3.99988,4.15429 z" />
  </g>
</svg>
